# //////////////////////////////////////////////////////////////////////////////////
# //                                                                              //
# // rMeshOBJ exporter v1.0 - Mesh exported as triangle faces and not optimized   //
# //                                                                              //
# // more info and bugs-report:  github.com/raysan5/raylib                        //
# // feedback and support:       ray[at]raylib.com                                //
# //                                                                              //
# // Copyright (c) 2018-2023 Ramon Santamaria (@raysan5)                          //
# //                                                                              //
# //////////////////////////////////////////////////////////////////////////////////

# Vertex Count:     36
# Triangle Count:   50

g mesh
v -1.00 0.00 -1.00
v -0.60 0.00 -1.00
v -0.20 0.00 -1.00
v 0.20 0.00 -1.00
v 0.60 0.00 -1.00
v 1.00 0.00 -1.00
v -1.00 0.00 -0.60
v -0.60 0.00 -0.60
v -0.20 0.00 -0.60
v 0.20 0.00 -0.60
v 0.60 0.00 -0.60
v 1.00 0.00 -0.60
v -1.00 0.00 -0.20
v -0.60 0.00 -0.20
v -0.20 0.00 -0.20
v 0.20 0.00 -0.20
v 0.60 0.00 -0.20
v 1.00 0.00 -0.20
v -1.00 0.00 0.20
v -0.60 0.00 0.20
v -0.20 0.00 0.20
v 0.20 0.00 0.20
v 0.60 0.00 0.20
v 1.00 0.00 0.20
v -1.00 0.00 0.60
v -0.60 0.00 0.60
v -0.20 0.00 0.60
v 0.20 0.00 0.60
v 0.60 0.00 0.60
v 1.00 0.00 0.60
v -1.00 0.00 1.00
v -0.60 0.00 1.00
v -0.20 0.00 1.00
v 0.20 0.00 1.00
v 0.60 0.00 1.00
v 1.00 0.00 1.00
vt 0.000 0.000
vt 0.200 0.000
vt 0.400 0.000
vt 0.600 0.000
vt 0.800 0.000
vt 1.000 0.000
vt 0.000 0.200
vt 0.200 0.200
vt 0.400 0.200
vt 0.600 0.200
vt 0.800 0.200
vt 1.000 0.200
vt 0.000 0.400
vt 0.200 0.400
vt 0.400 0.400
vt 0.600 0.400
vt 0.800 0.400
vt 1.000 0.400
vt 0.000 0.600
vt 0.200 0.600
vt 0.400 0.600
vt 0.600 0.600
vt 0.800 0.600
vt 1.000 0.600
vt 0.000 0.800
vt 0.200 0.800
vt 0.400 0.800
vt 0.600 0.800
vt 0.800 0.800
vt 1.000 0.800
vt 0.000 1.000
vt 0.200 1.000
vt 0.400 1.000
vt 0.600 1.000
vt 0.800 1.000
vt 1.000 1.000
vn 0.000 1.000 0.000
vn 0.000 1.000 0.000
vn 0.000 1.000 0.000
vn 0.000 1.000 0.000
vn 0.000 1.000 0.000
vn 0.000 1.000 0.000
vn 0.000 1.000 0.000
vn 0.000 1.000 0.000
vn 0.000 1.000 0.000
vn 0.000 1.000 0.000
vn 0.000 1.000 0.000
vn 0.000 1.000 0.000
vn 0.000 1.000 0.000
vn 0.000 1.000 0.000
vn 0.000 1.000 0.000
vn 0.000 1.000 0.000
vn 0.000 1.000 0.000
vn 0.000 1.000 0.000
vn 0.000 1.000 0.000
vn 0.000 1.000 0.000
vn 0.000 1.000 0.000
vn 0.000 1.000 0.000
vn 0.000 1.000 0.000
vn 0.000 1.000 0.000
vn 0.000 1.000 0.000
vn 0.000 1.000 0.000
vn 0.000 1.000 0.000
vn 0.000 1.000 0.000
vn 0.000 1.000 0.000
vn 0.000 1.000 0.000
vn 0.000 1.000 0.000
vn 0.000 1.000 0.000
vn 0.000 1.000 0.000
vn 0.000 1.000 0.000
vn 0.000 1.000 0.000
vn 0.000 1.000 0.000
f 7/7/7 2/2/2 1/1/1
f 7/7/7 8/8/8 2/2/2
f 8/8/8 3/3/3 2/2/2
f 8/8/8 9/9/9 3/3/3
f 9/9/9 4/4/4 3/3/3
f 9/9/9 10/10/10 4/4/4
f 10/10/10 5/5/5 4/4/4
f 10/10/10 11/11/11 5/5/5
f 11/11/11 6/6/6 5/5/5
f 11/11/11 12/12/12 6/6/6
f 13/13/13 8/8/8 7/7/7
f 13/13/13 14/14/14 8/8/8
f 14/14/14 9/9/9 8/8/8
f 14/14/14 15/15/15 9/9/9
f 15/15/15 10/10/10 9/9/9
f 15/15/15 16/16/16 10/10/10
f 16/16/16 11/11/11 10/10/10
f 16/16/16 17/17/17 11/11/11
f 17/17/17 12/12/12 11/11/11
f 17/17/17 18/18/18 12/12/12
f 19/19/19 14/14/14 13/13/13
f 19/19/19 20/20/20 14/14/14
f 20/20/20 15/15/15 14/14/14
f 20/20/20 21/21/21 15/15/15
f 21/21/21 16/16/16 15/15/15
f 21/21/21 22/22/22 16/16/16
f 22/22/22 17/17/17 16/16/16
f 22/22/22 23/23/23 17/17/17
f 23/23/23 18/18/18 17/17/17
f 23/23/23 24/24/24 18/18/18
f 25/25/25 20/20/20 19/19/19
f 25/25/25 26/26/26 20/20/20
f 26/26/26 21/21/21 20/20/20
f 26/26/26 27/27/27 21/21/21
f 27/27/27 22/22/22 21/21/21
f 27/27/27 28/28/28 22/22/22
f 28/28/28 23/23/23 22/22/22
f 28/28/28 29/29/29 23/23/23
f 29/29/29 24/24/24 23/23/23
f 29/29/29 30/30/30 24/24/24
f 31/31/31 26/26/26 25/25/25
f 31/31/31 32/32/32 26/26/26
f 32/32/32 27/27/27 26/26/26
f 32/32/32 33/33/33 27/27/27
f 33/33/33 28/28/28 27/27/27
f 33/33/33 34/34/34 28/28/28
f 34/34/34 29/29/29 28/28/28
f 34/34/34 35/35/35 29/29/29
f 35/35/35 30/30/30 29/29/29
f 35/35/35 36/36/36 30/30/30

